#!OML:ASF H:\Terrain\Patient Classification 1\Terrain2\Thursday\justin.ASF
:FULLY-SPECIFIED
:DEGREES
1285
root 7.34618 17.1082 20.107 -367.2 0.884218 -6.97113
lowerback 4.13351 -0.95828 4.98237
upperback 2.44483 -1.09357 5.57859
thorax 0.22114 -0.533005 3.00374
lowerneck -9.94453 -2.49625 -8.67056
upperneck 42.6193 -3.25904 4.17962
head 17.6635 -2.17678 2.95888
rclavicle -2.84852e-014 3.33958e-014
rhumerus -34.5589 -20.8056 -70.9063
rradius 32.0914
rwrist -17.9227
rhand -22.5775 11.6973
rfingers 7.12502
rthumb 3.85108 -18.2477
lclavicle -2.84852e-014 3.33958e-014
lhumerus -46.1168 10.3493 83.0517
lradius 31.5431
lwrist -6.62778
lhand -22.5424 12.1163
lfingers 7.12502
lthumb 3.88504 42.0607
rfemur 10.3769 -9.05035 31.6501
rtibia 15.6367
rfoot -16.8853 -14.5302
rtoes -33.5128
lfemur -6.36898 5.02715 6.61833
ltibia 118.38
lfoot -14.0385 -16.3377
ltoes -6.44529
1286
root 7.34983 17.169 20.1999 -366.987 1.02725 -6.41911
lowerback 3.87497 -0.935134 4.43404
upperback 2.36711 -1.09788 5.43458
thorax 0.291161 -0.539531 3.15581
lowerneck -10.049 -2.56458 -8.79234
upperneck 42.372 -3.35689 4.28228
head 17.5614 -2.21628 3.00339
rclavicle 3.25572e-014 -4.21423e-014
rhumerus -34.8191 -19.3171 -71.5616
rradius 33.4751
rwrist -18.391
rhand -22.4355 12.094
rfingers 7.12502
rthumb 3.98824 -17.8485
lclavicle 3.25572e-014 -4.21423e-014
lhumerus -46.302 9.68454 83.4513
lradius 32.5444
lwrist -6.43417
lhand -22.4874 12.8926
lfingers 7.12502
lthumb 3.93816 42.8359
rfemur 12.3959 -9.18447 30.9044
rtibia 11.8569
rfoot -15.5322 -13.4847
rtoes -33.638
lfemur -6.75801 5.08396 5.19201
ltibia 118.755
lfoot -13.9959 -15.5847
ltoes -6.53483
1287
root 7.35219 17.2215 20.2869 -366.705 1.12373 -6.06767
lowerback 3.58173 -0.937759 4.0628
upperback 2.28706 -1.13089 5.35482
thorax 0.377883 -0.558979 3.27673
lowerneck -10.246 -2.62536 -9.01631
upperneck 42.0343 -3.43761 4.47066
head 17.4357 -2.25153 3.10556
rclavicle 1.92883e-014 -1.98785e-014
rhumerus -34.8798 -17.8709 -72.2085
rradius 34.5886
rwrist -18.3522
rhand -22.2087 12.1466
rfingers 7.12502
rthumb 4.20725 -17.7916
lclavicle 1.92883e-014 -1.98785e-014
lhumerus -46.4254 9.37429 83.627
lradius 33.4805
lwrist -6.19758
lhand -21.8083 13.765
lfingers 7.12502
lthumb 4.59383 43.6952
rfemur 15.2289 -9.13632 30.4459
rtibia 6.28341
rfoot -13.4294 -12.0276
rtoes -33.8291
lfemur -7.3322 5.30827 4.15986
ltibia 119.233
lfoot -14.1174 -14.6667
ltoes -6.0025
1288
root 7.35323 17.2673 20.3511 -366.31 1.24642 -6.01923
lowerback 3.51298 -0.867224 4.05483
upperback 2.04426 -1.0251 5.31004
thorax 0.161944 -0.507604 3.23159
lowerneck -10.376 -2.74881 -9.04689
upperneck 41.8113 -3.61018 4.49844
head 17.3611 -2.31632 3.08597
rclavicle -3.60297e-016 -3.10104e-014
rhumerus -35.0584 -16.6321 -72.7729
rradius 35.6446
rwrist -18.3755
rhand -22.0121 12.7971
rfingers 7.12502
rthumb 4.39706 -17.1372
lclavicle -3.60297e-016 -3.10104e-014
lhumerus -46.5051 8.53872 83.9817
lradius 34.1405
lwrist -4.88399
lhand -21.7438 13.8618
lfingers 7.12502
lthumb 4.65612 43.7906
rfemur 18.2075 -9.14311 30.3876
rtibia -1.43125e-014
rfoot -11.0427 -10.2802
rtoes -34.0388
lfemur -8.47265 5.79469 3.91783
ltibia 119.998
lfoot -14.2252 -13.7719
ltoes -1.94643
1289
root 7.3618 17.3121 20.4184 -365.993 1.28966 -6.28801
lowerback 3.56182 -0.778695 4.46255
upperback 1.76921 -0.87043 5.34721
thorax -0.158223 -0.430422 3.03956
lowerneck -10.2807 -2.84864 -9.09147
upperneck 41.5346 -3.7658 4.53574
head 17.1966 -2.37557 3.07526
rclavicle -5.31749e-015 -3.81667e-014
rhumerus -35.4599 -15.2267 -73.308
rradius 36.9309
rwrist -18.5266
rhand -21.832 14.5763
rfingers 7.12502
rthumb 4.57098 -15.3544
lclavicle -5.31749e-015 -3.81667e-014
lhumerus -46.7606 7.43302 84.5443
lradius 34.8983
lwrist -3.05368
lhand -22.1361 13.767
lfingers 7.12502
lthumb 4.27737 43.7038
rfemur 18.0829 -9.12681 30.6574
rtibia 3.49861e-014
rfoot -11.1797 -10.4515
rtoes -34.3966
lfemur -9.58178 6.33587 4.17448
ltibia 120.856
lfoot -14.4779 -13.0464
ltoes -0.19982
1290
root 7.36899 17.353 20.4879 -365.824 1.55958 -6.48737
lowerback 3.56069 -0.766993 4.84235
upperback 1.69932 -0.837106 5.3208
thorax -0.235702 -0.412207 2.79913
lowerneck -10.4494 -2.97458 -9.10763
upperneck 41.1976 -3.95156 4.60181
head 17.0707 -2.43552 3.06453
rclavicle 1.17034e-014 3.26007e-014
rhumerus -35.7279 -13.9598 -73.9157
rradius 38.419
rwrist -18.2258
rhand -21.7397 15.4557
rfingers 7.12502
rthumb 4.66016 -14.473
lclavicle 1.17034e-014 3.26007e-014
lhumerus -46.6896 6.56758 84.8411
lradius 35.7914
lwrist -2.25967
lhand -21.2282 15.1599
lfingers 7.12502
lthumb 5.15398 45.0773
rfemur 18.0966 -9.34868 30.8108
rtibia 3.49861e-014
rfoot -11.2909 -10.7399
rtoes -35.0169
lfemur -10.5983 6.32258 3.98947
ltibia 121.658
lfoot -14.7247 -12.2602
ltoes 1.22986
1291
root 7.36591 17.3892 20.5432 -365.603 2.1309 -6.49379
lowerback 3.63601 -0.842256 4.85444
upperback 1.62989 -0.924774 5.27679
thorax -0.349403 -0.457103 2.75183
lowerneck -10.7884 -3.07834 -9.12291
upperneck 40.8708 -4.07644 4.64929
head 16.9889 -2.47124 3.05495
rclavicle -1.36664e-015 -3.97569e-014
rhumerus -35.7897 -13.0355 -74.3931
rradius 39.691
rwrist -17.411
rhand -21.5298 15.4497
rfingers 7.12502
rthumb 4.86275 -14.4745
lclavicle -1.36664e-015 -3.97569e-014
lhumerus -46.3941 6.02772 84.9081
lradius 36.5741
lwrist -1.7641
lhand -19.1575 17.4003
lfingers 7.12502
lthumb 7.15312 47.2595
rfemur 18.0038 -9.84414 30.7914
rtibia 1.59028e-014
rfoot -11.3239 -10.9784
rtoes -35.4119
lfemur -11.8857 6.01733 3.57468
ltibia 122.502
lfoot -14.9868 -11.4784
ltoes 0.438852
1292
root 7.36602 17.4227 20.6018 -365.386 2.5374 -6.6946
lowerback 3.82339 -0.898016 5.02107
upperback 1.45402 -0.96226 5.35444
thorax -0.636628 -0.479344 2.74638
lowerneck -10.8915 -3.1449 -9.31143
upperneck 40.5754 -4.1268 4.71699
head 16.8656 -2.50373 3.10085
rclavicle 2.47301e-014 -3.18055e-015
rhumerus -35.9553 -12.1093 -74.6868
rradius 40.651
rwrist -16.5485
rhand -21.2511 15.855
rfingers 7.12502
rthumb 5.13186 -14.0628
lclavicle 2.47301e-014 -3.18055e-015
lhumerus -46.4517 5.7556 84.9506
lradius 37.4615
lwrist -0.71508
lhand -17.65 18.5157
lfingers 7.12502
lthumb 8.60812 48.3202
rfemur 17.9114 -10.198 30.99
rtibia 5.725e-014
rfoot -11.3704 -11.123
rtoes -35.5708
lfemur -13.1667 6.078 3.72702
ltibia 123.354
lfoot -15.3374 -11.0043
ltoes 2.0271
1293
root 7.37194 17.4517 20.6681 -365.345 2.67833 -6.92618
lowerback 4.09049 -0.834473 5.36902
upperback 1.37106 -0.832204 5.39941
thorax -0.877261 -0.416949 2.5989
lowerneck -10.9296 -3.25081 -9.41216
upperneck 40.2665 -4.2263 4.68294
head 16.7195 -2.55597 3.07593
rclavicle 5.62188e-015 4.69132e-014
rhumerus -36.1653 -11.1244 -75.0303
rradius 41.6205
rwrist -15.8302
rhand -21.4047 15.7534
rfingers 7.12502
rthumb 4.98358 -14.168
lclavicle 5.62188e-015 4.69132e-014
lhumerus -46.4836 5.42822 84.9848
lradius 38.4203
lwrist 0.44871
lhand -18.4195 17.8383
lfingers 7.12502
lthumb 7.86546 47.6719
rfemur 18.0338 -10.3235 31.1924
rtibia 5.08889e-014
rfoot -11.4474 -11.2685
rtoes -35.9174
lfemur -14.057 6.34722 3.95307
ltibia 124.087
lfoot -15.8971 -10.4886
ltoes 4.081
1294
root 7.37345 17.4694 20.7243 -365.268 2.72012 -7.05467
lowerback 4.29854 -0.744289 5.56516
upperback 1.39856 -0.685779 5.40935
thorax -0.968176 -0.344499 2.49576
lowerneck -11.1045 -3.30882 -9.53599
upperneck 39.9142 -4.27567 4.76732
head 16.5838 -2.57297 3.11561
rclavicle 7.44355e-015 -1.43125e-014
rhumerus -36.0747 -10.1693 -75.4649
rradius 42.459
rwrist -15.1653
rhand -21.6353 15.4113
rfingers 7.12502
rthumb 4.7609 -14.5152
lclavicle 7.44355e-015 -1.43125e-014
lhumerus -46.18 5.11007 84.9293
lradius 39.3141
lwrist 1.12299
lhand -18.8259 17.7987
lfingers 7.12502
lthumb 7.47321 47.6467
rfemur 18.1055 -10.3414 31.3227
rtibia 3.81667e-014
rfoot -11.5785 -11.4523
rtoes -36.4095
lfemur -15.0104 6.72794 4.18658
ltibia 124.886
lfoot -16.622 -9.96864
ltoes 5.02958
1295
root 7.3748 17.4776 20.7702 -365.01 2.80973 -7.41616
lowerback 4.43315 -0.684014 6.01083
upperback 1.36389 -0.569125 5.43998
thorax -1.08323 -0.287921 2.27595
lowerneck -11.3031 -3.35485 -9.63209
upperneck 39.5353 -4.33898 4.92058
head 16.4434 -2.58204 3.17758
rclavicle 5.41067e-015 -7.71285e-014
rhumerus -35.8687 -9.48863 -75.867
rradius 43.0778
rwrist -14.4888
rhand -21.7066 15.5742
rfingers 7.12502
rthumb 4.69207 -14.3539
lclavicle 5.41067e-015 -7.71285e-014
lhumerus -45.8624 4.77163 84.7464
lradius 40.2749
lwrist 1.77354
lhand -17.4035 19.2159
lfingers 7.12502
lthumb 8.84602 49.0104
rfemur 17.9216 -10.3929 31.7411
rtibia 1.11319e-014
rfoot -11.6975 -11.6547
rtoes -36.8041
lfemur -16.5457 7.3477 4.90498
ltibia 125.865
lfoot -17.4949 -9.52766
ltoes 4.32123
1296
root 7.38504 17.4901 20.8266 -364.94 2.88601 -7.80178
lowerback 4.74787 -0.555376 6.73363
upperback 1.31291 -0.327481 5.36131
thorax -1.31494 -0.172232 1.78379
lowerneck -11.3435 -3.46846 -9.53347
upperneck 39.1772 -4.5544 5.0144
head 16.2841 -2.63484 3.15324
rclavicle -7.79609e-015 4.45278e-014
rhumerus -35.9361 -9.20214 -76.1571
rradius 43.8192
rwrist -14.0241
rhand -21.6722 15.7151
rfingers 7.12502
rthumb 4.72534 -14.2122
lclavicle -7.79609e-015 4.45278e-014
lhumerus -45.5475 3.9929 84.6929
lradius 41.1231
lwrist 3.13182
lhand -16.0926 20.3006
lfingers 7.12502
lthumb 10.1108 50.0376
rfemur 17.9869 -10.4603 32.1163
rtibia 1.59028e-014
rfoot -11.7003 -11.8588
rtoes -37.1248
lfemur -17.7705 7.82444 5.4014
ltibia 126.593
lfoot -18.5766 -9.02662
ltoes 3.27221
1297
root 7.39657 17.5035 20.8921 -365.066 2.76868 -7.96485
lowerback 5.12998 -0.359416 7.19896
upperback 1.35852 -0.00619942 5.25472
thorax -1.47525 -0.0156469 1.39862
lowerneck -11.4051 -3.60184 -9.46525
upperneck 39.0471 -4.792 5.09581
head 16.2564 -2.70752 3.13245
rclavicle -2.45375e-015 -3.73715e-014
rhumerus -35.9868 -8.6714 -76.4628
rradius 44.4917
rwrist -14.0165
rhand -21.6837 15.5663
rfingers 7.12502
rthumb 4.71419 -14.3613
lclavicle -2.45375e-015 -3.73715e-014
lhumerus -45.1771 3.07884 84.84
lradius 41.7924
lwrist 4.69893
lhand -15.9278 20.5059
lfingers 7.12502
lthumb 10.2698 50.2352
rfemur 18.349 -10.3599 32.2287
rtibia 1.74931e-014
rfoot -11.7011 -12.0418
rtoes -37.3825
lfemur -18.4936 8.16786 5.44123
ltibia 126.927
lfoot -19.1018 -8.79678
ltoes 4.95557
1298
root 7.40136 17.5088 20.9476 -364.996 2.69558 -8.10131
lowerback 5.31798 -0.257508 7.33199
upperback 1.4349 0.151985 5.28523
thorax -1.49628 0.0635036 1.34724
lowerneck -11.4471 -3.65302 -9.55742
upperneck 38.7404 -4.85589 5.18151
head 16.119 -2.7292 3.16603
rclavicle 1.04362e-014 -1.19271e-014
rhumerus -35.6421 -7.68755 -76.8257
rradius 44.7979
rwrist -14.0498
rhand -21.7353 15.454
rfingers 7.12502
rthumb 4.66438 -14.4746
lclavicle 1.04362e-014 -1.19271e-014
lhumerus -44.8329 2.81534 84.8562
lradius 42.5255
lwrist 5.55063
lhand -16.2647 20.416
lfingers 7.12502
lthumb 9.94481 50.1611
rfemur 18.4684 -10.2665 32.3753
rtibia 6.36111e-015
rfoot -11.7818 -12.1955
rtoes -37.6623
lfemur -19.6648 8.61476 5.44733
ltibia 127.203
lfoot -19.2469 -8.51585
ltoes 7.70984
1299
root 7.40491 17.5118 20.9976 -364.829 2.68822 -8.53698
lowerback 5.48678 -0.229205 7.7093
upperback 1.49145 0.228145 5.42762
thorax -1.52828 0.100863 1.28261
lowerneck -11.4025 -3.62034 -9.72029
upperneck 38.2215 -4.82259 5.39706
head 15.8476 -2.7011 3.27962
rclavicle 4.48508e-015 2.94201e-014
rhumerus -35.1151 -6.83612 -77.1261
rradius 44.9431
rwrist -13.906
rhand -21.5451 15.5177
rfingers 7.12502
rthumb 4.84806 -14.4069
lclavicle 4.48508e-015 2.94201e-014
lhumerus -44.3423 2.91958 84.684
lradius 43.0815
lwrist 5.98334
lhand -15.8504 20.7944
lfingers 7.12502
lthumb 10.3444 50.5199
rfemur 18.4135 -10.247 32.8769
rtibia -2.70347e-014
rfoot -11.7382 -12.3217
rtoes -38.197
lfemur -21.2379 9.18153 5.93448
ltibia 127.5
lfoot -19.8279 -8.36174
ltoes 8.79843
